<svg width="24" height="44" viewBox="0 0 24 44" fill="none" xmlns="http://www.w3.org/2000/svg">
<path d="M0.90625 25.3438V24.8438V19.2188V18.7188H1.40625H6.47398C6.52872 18.6449 6.59785 18.5544 6.68146 18.4521C6.90594 18.1772 7.23453 17.8168 7.67478 17.454C8.55749 16.7264 9.8916 15.9879 11.7237 15.9126L13.0035 15.86L12.0978 16.7657L8.96465 19.8989C8.88532 19.9782 8.88532 20.1069 8.96465 20.1862C9.55227 20.7738 10.3233 21.0678 11.0969 21.0678L0.90625 25.3438ZM0.90625 25.3438H1.40625M0.90625 25.3438H1.40625M1.40625 25.3438H6.4737C6.53203 25.4224 6.60659 25.5196 6.69752 25.63C6.93366 25.9166 7.2802 26.2918 7.74415 26.6652C8.67479 27.4141 10.0804 28.1562 12 28.1562C13.9641 28.1562 15.8444 27.2952 17.1319 25.8309L17.3822 25.5461L17.1756 25.2282L13.9703 20.2975L13.6382 19.7865M1.40625 25.3438L13.6382 19.7865M13.6382 19.7865L13.2019 20.2121M13.6382 19.7865L13.2019 20.2121M13.2019 20.2121C12.6178 20.7819 11.8584 21.0677 11.097 21.0678L13.2019 20.2121ZM17.5805 18.131L17.7305 18.3125H17.966H23C23.2761 18.3125 23.5 18.5364 23.5 18.8125V25.25C23.5 25.5261 23.2761 25.75 23 25.75H17.966H17.7305L17.5805 25.9315C16.2149 27.5845 14.1521 28.5625 12 28.5625C9.84792 28.5625 7.78509 27.5845 6.41945 25.9315L6.26947 25.75H6.03398H1C0.723858 25.75 0.5 25.5261 0.5 25.25V18.8125C0.5 18.5364 0.723858 18.3125 1 18.3125H6.03398H6.26947L6.41945 18.131C7.78509 16.478 9.84792 15.5 12 15.5C14.1521 15.5 16.2149 16.478 17.5805 18.131ZM22.5938 25.3438H23.0938V24.8438V19.2187V18.7187H22.5938H17.5237C17.4859 18.6678 17.4412 18.6086 17.3895 18.5431C17.2197 18.3273 16.9763 18.0433 16.6518 17.7414C16.0025 17.1374 15.0272 16.4608 13.6677 16.1158L13.3921 16.0459L13.1911 16.2469L9.8343 19.6038L9.33382 20.1043L9.9728 20.4087C10.9416 20.8703 12.1393 20.7018 12.9422 19.8989C12.9422 19.8989 12.9422 19.8989 12.9422 19.8989L13.6683 19.1728L14.8062 20.3108L14.8063 20.3108C15.2984 20.8029 15.9552 21.075 16.6514 21.075C17.0515 21.075 17.4399 20.9851 17.7922 20.8136C17.9011 20.7606 18.0156 20.7372 18.1095 20.7419C18.1994 20.7464 18.253 20.7745 18.2865 20.808C18.3283 20.8498 18.3427 20.8989 18.3417 20.9326C18.3412 20.9483 18.3376 20.9579 18.335 20.9629C18.3329 20.9668 18.3289 20.9729 18.3173 20.9806L18.5945 21.3968L18.3173 20.9806C17.8287 21.306 17.2549 21.4813 16.6514 21.4813C16.497 21.4813 16.3444 21.4696 16.1945 21.447L15.0943 21.2811L15.7007 22.2139L17.5874 25.1163L17.7352 25.3438H18.0066H22.5938Z" stroke="#00AD8C"/>
</svg>
